<?xml version="1.0" encoding="utf-8"?>
<!-- Generator: Adobe Illustrator 25.2.1, SVG Export Plug-In . SVG Version: 6.00 Build 0)  -->
<svg version="1.1" id="Camada_1" xmlns="http://www.w3.org/2000/svg" xmlns:xlink="http://www.w3.org/1999/xlink" x="0px" y="0px"
	 viewBox="0 0 512 512" style="enable-background:new 0 0 512 512;" xml:space="preserve">
<style type="text/css">
	.st0{fill:#222D3A;}
	.st1{fill:#B3BAC0;}
	.st2{fill:none;}
</style>
<path class="st0" d="M0,0h512v512H0V0z"/>
<g>
	<path class="st1" d="M486.8,148.7c-12.2-13.1-29.2-20.4-47.9-20.4c-18.9,0-35.9,7.2-48,20.2c-12.2,13.2-18.2,31.1-16.8,50.5
		c2.8,38.2,31.9,69.3,64.8,69.3c33,0,62-31.1,64.8-69.3C505.1,179.9,499.1,162,486.8,148.7z"/>
	<path class="st1" d="M307.9,408.4h261.9c0.4-5.8-0.1-18.5-1.3-25.2c-5.3-29.3-21.7-53.9-47.6-71.1c-23-15.3-52.1-23.8-82-23.8
		s-59,8.4-82,23.8c-25.9,17.3-42.4,41.9-47.6,71.1C308,390,307.7,403.6,307.9,408.4z"/>
</g>
<g>
	<path class="st1" d="M121.8,135.7c-12.2-13.1-29.2-20.4-47.9-20.4c-18.9,0-35.9,7.2-48,20.2C13.7,148.7,7.7,166.6,9.1,186
		c2.8,38.2,31.9,69.3,64.8,69.3c33,0,62-31.1,64.8-69.3C140.1,166.9,134.1,149,121.8,135.7z"/>
	<path class="st1" d="M-57.1,395.4h261.9c0.4-5.8-0.1-18.5-1.3-25.2c-5.3-29.3-21.7-53.9-47.6-71.1c-23-15.3-52.1-23.8-82-23.8
		s-59,8.4-82,23.8C-34,316.4-50.5,341-55.8,370.3C-57,377-57.3,390.6-57.1,395.4z"/>
</g>
<path class="st0" d="M475.9,469.6c-9.1-50.7-37.5-93.2-82.1-123c-29.2-19.5-64.3-32.4-101.3-37.6c16.7-6.3,32.2-16.8,45.5-31.1
	c22-23.5,35.5-54.7,38-87.8c2.6-35.2-8.5-68.2-31.3-92.8c-22.6-24.4-54.1-37.9-88.6-37.9c-34.7,0-66.3,13.4-88.8,37.7
	c-22.8,24.5-33.9,57.5-31.2,93c4,55.1,39,102,83.8,118.9c-37,5.1-72.2,18-101.5,37.6c-44.6,29.8-73,72.3-82.1,123
	c-2.1,12.3-2.7,35.1-2.2,43.4l0.5,9.1v9.8h442.3l1.4-18.5C479,503.3,478.2,482.3,475.9,469.6z"/>
<rect y="0" class="st2" width="512" height="512"/>
<g>
	<path class="st1" d="M329.5,111c-18.7-20.3-44.9-31.5-73.8-31.5c-29,0-55.2,11.1-73.9,31.3c-18.8,20.4-28,48.1-25.8,78
		c4.3,59,49,107,99.8,107s95.4-48,99.8-107C357.7,159.1,348.5,131.5,329.5,111z"/>
	<path class="st1" d="M53.9,512h404.4c0.7-9-0.1-28.5-2-38.9c-8.1-45.2-33.6-83.2-73.5-109.8c-35.5-23.7-80.5-36.7-126.7-36.7
		s-91.2,13-126.7,36.7C89.5,390,64.1,428,55.9,473.1C54.1,483.5,53.5,504.5,53.9,512z"/>
</g>
</svg>
